<svg width="150" height="150" viewBox="0 0 150 150" fill="none" xmlns="http://www.w3.org/2000/svg">
<rect width="150" height="150" rx="75" fill="white"/>
<path d="M86.7988 114.801L109.634 74.7018C109.634 74.7018 111.284 70.5501 105.911 70.5501H98.4114L91.2656 70.5493C90.3866 70.4716 89.9114 70.5611 88.6852 70.5599C87.9114 70.5591 88.9114 70.55 87.9114 70.5591C72.9114 70.5592 72.9114 70.5599 72.9114 70.5599L102.033 87.0501C102.996 87.0465 84.0054 117.382 84.8325 116.88C85.6597 116.379 86.3388 115.66 86.7988 114.801Z" fill="white"/>
<path fill-rule="evenodd" clip-rule="evenodd" d="M83.6849 78.3292C77.0636 89.9637 62.4863 115.713 62.4863 115.713L82.0978 118.168C83.0612 118.165 84.5847 118.019 85.4118 117.518C86.3104 116.093 86.434 115.951 86.5346 115.795C86.5893 115.71 86.6371 115.62 86.7992 115.318L109.634 75.2184C109.634 75.2184 110.05 74.1107 109.852 72.9765C109.717 71.836 108.902 70.5501 105.912 70.5501H98.4118L91.2661 70.5493C90.7337 70.5023 90.3494 70.5165 89.8567 70.5349C89.536 70.5468 89.1692 70.5604 88.6857 70.5599C88.2244 70.5594 88.3934 70.556 88.3934 70.5552C88.3934 70.5547 88.3158 70.5554 87.9119 70.5591C75.7695 70.5592 74.7668 70.5326 73.7646 70.5444C73.5287 70.5471 73.2929 70.552 72.9119 70.5599C70.9119 70.6013 71.4119 72.0167 72.9119 73.0176C73.5073 73.4149 78.2189 75.7081 83.6849 78.3292Z" fill="url(#paint0_linear_343_62)"/>
<path d="M82.0983 109.316L68.3971 85.1749C67.9265 84.3917 67.2491 83.758 66.4419 83.3458C65.6347 82.9336 64.7299 82.7592 63.8301 82.8426H49.1886C49.1886 82.8426 43.144 82.9789 45.4275 87.0707C47.711 91.1625 61.5465 115.577 61.5465 115.577C61.5465 115.577 62.4868 118.168 66.2479 118.168H83.9788C83.9788 118.168 87.337 118.032 84.7848 113.94C82.2326 109.848 82.0983 109.316 82.0983 109.316Z" fill="url(#paint1_linear_343_62)"/>
<path d="M64.1051 33.7495L41.2698 73.8487C41.2698 73.8487 39.5236 78.4997 44.8966 78.4997H59.6724C60.5514 78.5774 61.4342 78.4009 62.2186 77.9906C63.0031 77.5803 63.6571 76.9529 64.1051 76.181C65.717 73.4532 88.418 33.354 88.418 33.354L68.9179 30.9998C67.9546 31.0033 66.8984 31.169 66.0713 31.6705C65.918 30.4997 64.5651 32.8901 64.1051 33.7495Z" fill="url(#paint2_linear_343_62)"/>
<path d="M68.7259 39.8518L82.4271 63.9931C82.8977 64.7763 83.5751 65.4099 84.3823 65.8222C85.1895 66.2344 86.0943 66.4087 86.9942 66.3254H101.636C101.636 66.3254 107.68 66.189 105.397 62.0973C103.113 58.0055 89.2777 33.5914 89.2777 33.5914C89.2777 33.5914 88.3374 30.9999 84.5763 30.9999H66.8454C66.8454 30.9999 63.4873 31.1363 66.0394 35.2281C68.5916 39.3198 68.7259 39.8518 68.7259 39.8518Z" fill="url(#paint3_linear_343_62)"/>
<defs>
<linearGradient id="paint0_linear_343_62" x1="95.1811" y1="75.1775" x2="74.9726" y2="118.781" gradientUnits="userSpaceOnUse">
<stop stop-color="#93C5FD"/>
<stop offset="1" stop-color="#1E3A8A"/>
</linearGradient>
<linearGradient id="paint1_linear_343_62" x1="75.4626" y1="118.4" x2="55.1984" y2="84.696" gradientUnits="userSpaceOnUse">
<stop stop-color="#93C5FD"/>
<stop offset="1" stop-color="#1E3A8A"/>
</linearGradient>
<linearGradient id="paint2_linear_343_62" x1="55.7232" y1="73.8706" x2="75.839" y2="30.3461" gradientUnits="userSpaceOnUse">
<stop stop-color="#93C5FD"/>
<stop offset="1" stop-color="#1E3A8A"/>
</linearGradient>
<linearGradient id="paint3_linear_343_62" x1="75.3616" y1="30.7681" x2="95.6258" y2="64.472" gradientUnits="userSpaceOnUse">
<stop stop-color="#93C5FD"/>
<stop offset="1" stop-color="#1E3A8A"/>
</linearGradient>
</defs>
</svg>
